<svg xmlns="http://www.w3.org/2000/svg" width="260" height="78" viewBox="0 0 260 78" role="img" aria-label="LINKEDIN">
<defs>
<linearGradient id="b" x1="0" y1="0" x2="1" y2="1"><stop offset="0" stop-color="#170a14"/><stop offset="1" stop-color="#3a0d2f"/></linearGradient>
<linearGradient id="s" x1="0" y1="0" x2="1" y2="0"><stop offset="0" stop-color="#c026d3"/><stop offset=".5" stop-color="#f472b6"/><stop offset="1" stop-color="#c026d3"/></linearGradient>
<linearGradient id="sh" x1="0" y1="0" x2="1" y2="0"><stop offset="0" stop-color="#ffffff" stop-opacity="0"/><stop offset=".5" stop-color="#fbcfe8" stop-opacity=".2"/><stop offset="1" stop-color="#ffffff" stop-opacity="0"/></linearGradient>
<filter id="g" x="-50%" y="-80%" width="200%" height="260%"><feGaussianBlur stdDeviation="2.2" result="b"/><feMerge><feMergeNode in="b"/><feMergeNode in="SourceGraphic"/></feMerge></filter>
<clipPath id="c"><rect x="2" y="2" width="256" height="74" rx="14"/></clipPath>
</defs>
<rect x="2" y="2" width="256" height="74" rx="14" fill="url(#b)"/>
<g clip-path="url(#c)">
<rect x="-140" y="-10" width="90" height="98" fill="url(#sh)" transform="skewX(-18)"><animate attributeName="x" values="-140;330" dur="4s" begin="0s" repeatCount="indefinite"/></rect>
<rect x="2" y="73" width="0" height="3" fill="#f472b6"><animate attributeName="width" values="0;256;256" keyTimes="0;.75;1" dur="4s" begin="0s" repeatCount="indefinite"/><animate attributeName="opacity" values=".7;.7;0" keyTimes="0;.75;1" dur="4s" begin="0s" repeatCount="indefinite"/></rect>
</g>
<rect x="2" y="2" width="256" height="74" rx="14" fill="none" stroke="url(#s)" stroke-width="1.6" filter="url(#g)"><animate attributeName="opacity" values=".5;1;.5" dur="3s" begin="0s" repeatCount="indefinite"/></rect>
<g transform="translate(20 23)" fill="none" stroke="#f472b6" stroke-width="2" stroke-linecap="round" stroke-linejoin="round" filter="url(#g)"><rect x="2" y="2" width="28" height="28" rx="6"/><path d="M10 14v10"/><circle cx="10" cy="9.4" r="1.3" fill="#f472b6" stroke="none"/><path d="M15 14v10"/><path d="M15 19a4 4 0 0 1 8 0v5"/></g>
<text x="68" y="36" font-family="'JetBrains Mono','Fira Code',Consolas,'Courier New',monospace" font-size="15" font-weight="700" letter-spacing="2.4" fill="#fce7f3">LINKEDIN</text>
<circle cx="72" cy="51.5" r="3" fill="#4ade80"><animate attributeName="opacity" values="1;.2;1" dur="1.6s" begin="0s" repeatCount="indefinite"/></circle>
<text x="81" y="55" font-family="'JetBrains Mono','Fira Code',Consolas,'Courier New',monospace" font-size="10" letter-spacing="2" fill="#f9a8d4">PROFILE</text>
<g fill="none" stroke="#f472b6" stroke-width="2" stroke-linecap="round" stroke-linejoin="round">
<path d="M222 31l8 8-8 8"><animate attributeName="opacity" values=".25;1;.25" dur="1.4s" repeatCount="indefinite"/></path>
<path d="M232 31l8 8-8 8"><animate attributeName="opacity" values=".25;1;.25" dur="1.4s" begin=".25s" repeatCount="indefinite"/></path>
</g>
</svg>
